# File created by Blade
# Date/Time:  Thu Jan 15 19:03:44 2015
#---------------------------------------------------------
:version 1.10
:name HOM
:units
  mass 1.0
  length 1.000000
  angle deg
:documentation
     Acclaim Skeleton File
:root
   axis xyz
   order TX TY TZ RX RY RZ
   position 0.000000 0.000000 0.000000
   orientation 0 0 0
:bonedata
   begin
      id 1
      name Spine_dum
      direction 0.000000 1.000000 0.000000
      length 4.354460
      axis 0.0 0.0 0.0 xyz
   end
   begin
      id 2
      name LeftUpLeg_dum
      direction 1.000000 0.000000 0.000000
      length 4.291077
      axis 0.0 0.0 0.0 xyz
   end
   begin
      id 3
      name RightUpLeg_dum
      direction -1.000000 0.000000 0.000000
      length 4.291077
      axis 0.0 0.0 0.0 xyz
   end
   begin
      id 4
      name Spine
      direction 0.000000 1.000000 0.000000
      length 0.000000
      axis 0.0 0.0 0.0 xyz
      dof rx ry rz
   end
   begin
      id 5
      name Spine_dum1
      direction 0.000000 1.000000 0.000000
      length 16.581769
      axis 0.0 0.0 0.0 xyz
   end
   begin
      id 6
      name Spine_dum2
      direction 0.000000 1.000000 0.000000
      length 12.903700
      axis 0.0 0.0 0.0 xyz
   end
   begin
      id 7
      name Spine_dum3
      direction 0.000000 1.000000 0.000000
      length 12.903700
      axis 0.0 0.0 0.0 xyz
   end
   begin
      id 8
      name Head
      direction 0.000000 1.000000 0.000000
      length 4.527550
      axis 0.0 0.0 0.0 xyz
      dof rx ry rz
   end
   begin
      id 9
      name LeftShoulder
      direction 1.000000 0.000000 0.000000
      length 6.942033
      axis 0.0 0.0 -90.0 xyz
      dof rx ry rz
   end
   begin
      id 10
      name LeftArm
      direction 1.000000 0.000000 0.000000
      length 11.010391
      axis 0.0 0.0 -90.0 xyz
      dof rx ry rz
   end
   begin
      id 11
      name LeftForeArm
      direction 1.000000 0.000000 0.000000
      length 8.054994
      axis 0.0 0.0 -90.0 xyz
      dof rz ry rx
   end
   begin
      id 12
      name LeftHand
      direction 0.000000 0.000000 0.000000
      length 0.000000
      axis 0.0 0.0 -90.0 xyz
      dof rx ry rz
   end
   begin
      id 13
      name LeftHand_dum1
      direction 0.000000 0.000000 0.000000
      length 0.000000
      axis 0.0 0.0 -90.0 xyz
   end
   begin
      id 14
      name LeftHand_dum2
      direction 1.000000 0.000000 0.000000
      length 3.937000
      axis 0.0 0.0 -90.0 xyz
   end
   begin
      id 15
      name LeftHandThumb1
      direction 0.000000 0.000000 1.000000
      length 3.937000
      axis 0.0 0.0 -90.0 xyz
      dof rx ry rz
   end
   begin
      id 16
      name RightShoulder
      direction -1.000000 0.000000 0.000000
      length 6.942033
      axis 0.0 0.0 90.0 xyz
      dof rx ry rz
   end
   begin
      id 17
      name RightArm
      direction -1.000000 0.000000 0.000000
      length 11.010391
      axis 0.0 0.0 90.0 xyz
      dof rx ry rz
   end
   begin
      id 18
      name RightForeArm
      direction -1.000000 0.000000 0.000000
      length 8.054994
      axis 0.0 0.0 90.0 xyz
      dof rz ry rx
   end
   begin
      id 19
      name RightHand
      direction 0.000000 0.000000 0.000000
      length 0.000000
      axis 0.0 0.0 90.0 xyz
      dof rx ry rz
   end
   begin
      id 20
      name RightHand_dum1
      direction 0.000000 0.000000 0.000000
      length 0.000000
      axis 0.0 0.0 90.0 xyz
   end
   begin
      id 21
      name RightHand_dum2
      direction -1.000000 0.000000 0.000000
      length 3.937000
      axis 0.0 0.0 90.0 xyz
   end
   begin
      id 22
      name RightHandThumb1
      direction 0.000000 0.000000 1.000000
      length 3.937000
      axis 0.0 0.0 90.0 xyz
      dof rx ry rz
   end
   begin
      id 23
      name LeftUpLeg
      direction 0.000000 -1.000000 0.000000
      length 17.039958
      axis 0.0 0.0 0.0 xyz
      dof rx ry rz
   end
   begin
      id 24
      name LeftLeg
      direction 0.000000 -1.000000 0.000000
      length 16.939743
      axis 0.0 0.0 0.0 xyz
      dof rx ry rz
   end
   begin
      id 25
      name LeftFoot
      direction 0.000000 -0.258819 0.965926
      length 5.235044
      axis 15.0 0.0 0.0 xyz
      dof rx ry rz
   end
   begin
      id 26
      name LeftToeBase
      direction 0.000000 0.000000 1.000000
      length 2.952750
      axis 0.0 0.0 0.0 xyz
      dof rx ry rz
   end
   begin
      id 27
      name RightUpLeg
      direction 0.000000 -1.000000 0.000000
      length 17.039958
      axis 0.0 0.0 0.0 xyz
      dof rx ry rz
   end
   begin
      id 28
      name RightLeg
      direction 0.000000 -1.000000 0.000000
      length 16.939743
      axis 0.0 0.0 0.0 xyz
      dof rx ry rz
   end
   begin
      id 29
      name RightFoot
      direction 0.000000 -0.258819 0.965926
      length 5.235044
      axis 15.0 0.0 0.0 xyz
      dof rx ry rz
   end
   begin
      id 30
      name RightToeBase
      direction 0.000000 0.000000 1.000000
      length 2.952750
      axis 0.0 0.0 0.0 xyz
      dof rx ry rz
   end
:hierarchy
   begin
      root Spine_dum LeftUpLeg_dum RightUpLeg_dum
      Spine_dum Spine
      LeftUpLeg_dum LeftUpLeg
      RightUpLeg_dum RightUpLeg
      Spine Spine_dum1 Spine_dum2 Spine_dum3
      Spine_dum1 Head
      Spine_dum2 LeftShoulder
      Spine_dum3 RightShoulder
      LeftShoulder LeftArm
      LeftArm LeftForeArm
      LeftForeArm LeftHand
      LeftHand LeftHand_dum1 LeftHand_dum2
      LeftHand_dum1 LeftHandThumb1
      RightShoulder RightArm
      RightArm RightForeArm
      RightForeArm RightHand
      RightHand RightHand_dum1 RightHand_dum2
      RightHand_dum1 RightHandThumb1
      LeftUpLeg LeftLeg
      LeftLeg LeftFoot
      LeftFoot LeftToeBase
      RightUpLeg RightLeg
      RightLeg RightFoot
      RightFoot RightToeBase
   end

# File created by Blade
# Date/Time:  Thu Jan 15 19:03:33 2015
# Frame Rate: 120.000 fps
#------------------------------------------------------
:FULLY-SPECIFIED
:DEGREES
1068
root 2.884958 35.670854 -11.613631 -177.228765 5.343334 -178.919257
Spine -15.940201 12.217149 -3.458234
Head 2.548855 -5.981771 8.347850
LeftShoulder 17.976272 -7.091395 11.046725
LeftArm 79.996368 -3.317926 -71.480714
LeftForeArm -0.000000 -37.443344 4.363302
LeftHand -6.330282 -0.000000 -39.530161
LeftHandThumb1 -26.253704 33.147579 0.000000
RightShoulder 6.266208 16.218482 -14.858765
RightArm 62.747833 6.241172 74.023583
RightForeArm -0.000000 -1.032097 18.170584
RightHand 2.153620 -0.000000 31.885073
RightHandThumb1 -24.326973 -32.862282 -0.000000
LeftUpLeg 5.003951 14.360211 -0.298810
LeftLeg -3.184330 -0.000000 0.000000
LeftFoot -17.872224 25.321023 -10.743126
LeftToeBase 20.235831 -0.000000 -0.000000
RightUpLeg 3.680146 -8.494854 0.098256
RightLeg -2.279449 -0.000000 0.000000
RightFoot -15.695008 -18.532406 10.627695
RightToeBase 19.977771 -0.000000 -0.000000
1069
root 2.885811 35.671187 -11.610084 -177.234625 5.361261 -178.918306
Spine -15.932794 12.215011 -3.457061
Head 2.521615 -5.990381 8.362413
LeftShoulder 18.008929 -7.246592 11.052996
LeftArm 79.827690 -3.407080 -72.445637
LeftForeArm -0.000000 -39.532808 4.418370
LeftHand -6.171306 0.000000 -39.057207
LeftHandThumb1 -26.253704 33.147579 0.000000
RightShoulder 6.339583 16.326350 -14.860077
RightArm 62.663490 6.504535 74.951361
RightForeArm -0.000000 0.259115 18.272930
RightHand 2.461636 -0.000000 31.060391
RightHandThumb1 -24.326973 -32.862282 -0.000000
LeftUpLeg 5.005162 14.385325 -0.295314
LeftLeg -3.180579 -0.000000 0.000000
LeftFoot -17.868674 25.310090 -10.724139
LeftToeBase 20.277157 -0.000000 -0.000000
RightUpLeg 3.680958 -8.496540 0.099520
RightLeg -2.284609 -0.000000 0.000000
RightFoot -15.675760 -18.520965 10.614709
RightToeBase 19.948445 -0.000000 -0.000000
1070
root 2.886152 35.671464 -11.605630 -177.234112 5.375406 -178.913103
Spine -15.926038 12.219671 -3.449438
Head 2.484985 -6.000587 8.367220
LeftShoulder 18.024265 -7.409515 11.074357
LeftArm 79.666238 -3.501959 -73.550751
LeftForeArm -0.000000 -41.350866 4.471979
LeftHand -5.961141 -0.000000 -38.772269
LeftHandThumb1 -26.253704 33.147579 0.000000
RightShoulder 6.385632 16.412051 -14.875377
RightArm 62.611869 6.725231 75.777103
RightForeArm -0.000000 1.557775 18.342947
RightHand 2.834040 -0.000000 30.221887
RightHandThumb1 -24.326973 -32.862282 -0.000000
LeftUpLeg 5.002184 14.391102 -0.291646
LeftLeg -3.188138 -0.000000 0.000000
LeftFoot -17.867242 25.328876 -10.716799
LeftToeBase 20.281761 -0.000000 -0.000000
RightUpLeg 3.665643 -8.514290 0.105400
RightLeg -2.272777 -0.000000 0.000000
RightFoot -15.678763 -18.484143 10.619125
RightToeBase 19.946426 -0.000000 -0.000000
1071
root 2.886502 35.671770 -11.602442 -177.233304 5.399072 -178.907582
Spine -15.922857 12.232350 -3.444917
Head 2.443606 -6.004332 8.376028
LeftShoulder 18.016294 -7.613722 11.120073
LeftArm 79.475980 -3.565026 -74.651259
LeftForeArm -0.000000 -43.230011 4.519101
LeftHand -5.786315 -0.000000 -38.375964
LeftHandThumb1 -26.253704 33.147579 0.000000
RightShoulder 6.419193 16.470590 -14.899964
RightArm 62.604022 6.955810 76.641663
RightForeArm -0.000000 2.590260 18.431397
RightHand 3.235198 0.000000 29.286740
RightHandThumb1 -24.326973 -32.862282 -0.000000
LeftUpLeg 4.999789 14.415233 -0.287589
LeftLeg -3.189429 -0.000000 0.000000
LeftFoot -17.861113 25.331692 -10.722790
LeftToeBase 20.252459 -0.000000 -0.000000
RightUpLeg 3.660731 -8.523067 0.109045
RightLeg -2.279879 -0.000000 0.000000
RightFoot -15.657629 -18.449946 10.617381
RightToeBase 19.976137 -0.000000 -0.000000
1072
root 2.887310 35.672352 -11.598827 -177.226156 5.417915 -178.902262
Spine -15.927994 12.234758 -3.438335
Head 2.418227 -5.988869 8.375820
LeftShoulder 18.020244 -7.877276 11.161521
LeftArm 79.180328 -3.646065 -75.734234
LeftForeArm 0.000000 -45.052478 4.644016
LeftHand -5.703258 0.000000 -37.880477
LeftHandThumb1 -26.253704 33.147579 0.000000
RightShoulder 6.467612 16.530437 -14.935059
RightArm 62.556397 7.143196 77.389123
RightForeArm 0.000000 3.516136 18.601045
RightHand 3.618488 0.000000 28.219875
RightHandThumb1 -24.326973 -32.862282 -0.000000
LeftUpLeg 4.987893 14.440434 -0.284374
LeftLeg -3.185289 -0.000000 0.000000
LeftFoot -17.866630 25.323361 -10.717773
LeftToeBase 20.278181 -0.000000 -0.000000
RightUpLeg 3.642957 -8.535272 0.114748
RightLeg -2.274900 -0.000000 0.000000
RightFoot -15.637818 -18.421479 10.601108
RightToeBase 19.972827 -0.000000 -0.000000
1073
root 2.887936 35.672847 -11.595366 -177.223569 5.429525 -178.897854
Spine -15.931462 12.242850 -3.437466
Head 2.402391 -5.986824 8.382637
LeftShoulder 18.009764 -7.768294 11.208368
LeftArm 79.337921 -3.796639 -76.675811
LeftForeArm -0.000000 -46.807906 4.642595
LeftHand -5.436313 -0.000000 -37.490127
LeftHandThumb1 -26.253704 33.147579 0.000000
RightShoulder 6.532201 16.587922 -14.942412
RightArm 62.525052 7.318268 77.989859
RightForeArm 0.000000 4.522347 18.657832
RightHand 4.135893 -0.000000 27.083536
RightHandThumb1 -24.326973 -32.862282 -0.000000
LeftUpLeg 4.982293 14.444418 -0.283569
LeftLeg -3.189998 -0.000000 0.000000
LeftFoot -17.867737 25.336476 -10.725222
LeftToeBase 20.307474 -0.000000 -0.000000
RightUpLeg 3.637117 -8.544052 0.120111
RightLeg -2.281853 -0.000000 0.000000
RightFoot -15.630268 -18.392463 10.624754
RightToeBase 19.947466 -0.000000 -0.000000
1074
root 2.888024 35.673057 -11.592742 -177.225203 5.447794 -178.895857
Spine -15.932853 12.263855 -3.433571
Head 2.390222 -5.983411 8.375449
LeftShoulder 18.026703 -7.860158 11.233423
LeftArm 79.251508 -3.928269 -77.577892
LeftForeArm -0.000000 -48.343414 4.737211
LeftHand -5.105600 0.000000 -36.922191
LeftHandThumb1 -26.253704 33.147579 0.000000
RightShoulder 6.554934 16.642530 -14.991137
RightArm 62.484037 7.470733 78.642076
RightForeArm -0.000000 5.346760 18.754106
RightHand 4.623592 -0.000000 25.940654
RightHandThumb1 -24.326973 -32.862282 -0.000000
LeftUpLeg 4.978815 14.442216 -0.282187
LeftLeg -3.180985 -0.000000 0.000000
LeftFoot -17.867877 25.347535 -10.724819
LeftToeBase 20.279006 -0.000000 -0.000000
RightUpLeg 3.637592 -8.539719 0.120579
RightLeg -2.291107 -0.000000 0.000000
RightFoot -15.616770 -18.382322 10.607946
RightToeBase 19.983443 -0.000000 -0.000000
1075
root 2.888829 35.673939 -11.589784 -177.222884 5.461459 -178.894437
Spine -15.934676 12.289495 -3.442090
Head 2.361857 -5.987505 8.388098
LeftShoulder 18.032040 -7.952970 11.253143
LeftArm 79.178388 -4.033956 -78.408587
LeftForeArm -0.000000 -49.689734 4.894696
LeftHand -4.693241 -0.000000 -36.189232
LeftHandThumb1 -26.253704 33.147579 0.000000
RightShoulder 6.559469 16.696506 -15.027960
RightArm 62.453069 7.576763 79.171929
RightForeArm -0.000000 6.288877 18.815590
RightHand 5.085754 -0.000000 24.611607
RightHandThumb1 -24.326973 -32.862282 -0.000000
LeftUpLeg 4.973053 14.438260 -0.283208
LeftLeg -3.180446 -0.000000 0.000000
LeftFoot -17.868886 25.366153 -10.736127
LeftToeBase 20.283663 -0.000000 -0.000000
RightUpLeg 3.629637 -8.521233 0.124030
RightLeg -2.292671 -0.000000 0.000000
RightFoot -15.608942 -18.380620 10.621807
RightToeBase 19.981574 -0.000000 -0.000000
1076
root 2.889119 35.674605 -11.586853 -177.222051 5.473225 -178.895069
Spine -15.946224 12.301617 -3.441984
Head 2.381617 -5.967776 8.375847
LeftShoulder 18.048445 -8.020026 11.260551
LeftArm 79.099645 -4.150493 -79.108814
LeftForeArm 0.000000 -51.016174 5.085955
LeftHand -4.153187 -0.000000 -35.296961
LeftHandThumb1 -26.253704 33.147579 0.000000
RightShoulder 6.601784 16.745806 -15.067949
RightArm 62.398287 7.699233 79.659381
RightForeArm -0.000000 7.087890 18.903220
RightHand 5.609348 -0.000000 23.230830
RightHandThumb1 -24.326973 -32.862282 -0.000000
LeftUpLeg 4.965779 14.438122 -0.285643
LeftLeg -3.175459 -0.000000 0.000000
LeftFoot -17.870470 25.380424 -10.731006
LeftToeBase 20.312898 -0.000000 -0.000000
RightUpLeg 3.626077 -8.527539 0.123820
RightLeg -2.300531 -0.000000 0.000000
RightFoot -15.596173 -18.361665 10.626333
RightToeBase 19.949071 -0.000000 -0.000000
1077
root 2.889883 35.675021 -11.584317 -177.229425 5.487200 -178.894724
Spine -15.944646 12.327618 -3.444822
Head 2.382233 -5.967166 8.369617
LeftShoulder 18.056775 -8.119001 11.253549
LeftArm 79.008677 -4.262027 -79.754696
LeftForeArm 0.000000 -51.877319 5.314123
LeftHand -3.472277 0.000000 -34.371312
LeftHandThumb1 -26.253704 33.147579 0.000000
RightShoulder 6.599747 16.787783 -15.130232
RightArm 62.326209 7.774159 80.132256
RightForeArm -0.000000 7.900067 19.061473
RightHand 6.322640 -0.000000 21.595473
RightHandThumb1 -24.326973 -32.862282 -0.000000
LeftUpLeg 4.963721 14.422248 -0.285931
LeftLeg -3.161765 -0.000000 0.000000
LeftFoot -17.874735 25.408173 -10.747672
LeftToeBase 20.295398 -0.000000 -0.000000
RightUpLeg 3.627417 -8.519298 0.125156
RightLeg -2.301251 -0.000000 0.000000
RightFoot -15.589287 -18.354798 10.628030
RightToeBase 19.946985 -0.000000 -0.000000
1078
root 2.889925 35.675829 -11.581725 -177.233117 5.492406 -178.901302
Spine -15.950838 12.342310 -3.458414
Head 2.388571 -5.969628 8.377483
LeftShoulder 18.055724 -8.163902 11.250657
LeftArm 78.977118 -4.354543 -80.258551
LeftForeArm -0.000000 -52.635342 5.568182
LeftHand -2.726930 -0.000000 -33.180184
LeftHandThumb1 -26.253704 33.147579 0.000000
RightShoulder 6.605662 16.817647 -15.174328
RightArm 62.275966 7.874577 80.666981
RightForeArm -0.000000 8.274322 19.273295
RightHand 6.973081 -0.000000 19.520825
RightHandThumb1 -24.326973 -32.862282 -0.000000
LeftUpLeg 4.957053 14.402930 -0.293452
LeftLeg -3.148933 -0.000000 0.000000
LeftFoot -17.884905 25.419023 -10.779637
LeftToeBase 20.266650 -0.000000 -0.000000
RightUpLeg 3.626815 -8.519634 0.119171
RightLeg -2.302729 -0.000000 0.000000
RightFoot -15.587053 -18.353253 10.636321
RightToeBase 19.970391 -0.000000 -0.000000
